<svg xmlns="http://www.w3.org/2000/svg" viewBox="0 0 88.08 223.66"><defs><style>.cls-1{fill:#abaaaa;}.cls-2{fill:#f8acae;}</style></defs><title>Asset 1</title><g id="Layer_2" data-name="Layer 2"><g id="Layer_1-2" data-name="Layer 1"><path class="cls-1" d="M87.47,17.75,57.55,25.58v-5.5l6.79-1.64V10L57.55,8.4V2.87l29.92,7.82ZM68.81,11.11v6.22l12.82-3.09Z"/><path class="cls-1" d="M57.55,40.85h13c2,0,3.36-1,3.36-3.21a4.76,4.76,0,0,0-2.33-4.2H57.55v-5h14.5l5.73-.34v4.39L75.11,33a7.49,7.49,0,0,1,3.16,6.56c0,4.43-3.2,6.22-6.87,6.22H57.55Z"/><path class="cls-1" d="M75.91,62.3H88.08v5H63.27l-5.72.31V63.18l2.52-.42a6.51,6.51,0,0,1-3-5.8c0-5.54,4.24-7.6,10-7.6h1.22c5.81,0,10,2.06,10,7.6A6.62,6.62,0,0,1,75.91,62.3Zm-4.28,0a4.64,4.64,0,0,0,2.33-4c0-2.82-2.14-4-5.69-4H67.05c-3.55,0-5.65,1.19-5.65,4a4.63,4.63,0,0,0,2.29,4Z"/><path class="cls-1" d="M78.24,82.19H73.43v-.84a5.37,5.37,0,0,0-2.14-4.7H57.55v-5h14.5l5.73-.34v4.39l-2.44.42a6.46,6.46,0,0,1,2.93,5.46C78.27,81.85,78.24,82.08,78.24,82.19Z"/><path class="cls-1" d="M65.83,89c-3.32.19-4.92,1.72-4.92,4.54s1.6,4.12,3.13,4.12v4.7h-.16c-3.62,0-6.83-3.06-6.83-8.86,0-6.53,4.35-9.46,10.12-9.46h1c5.76,0,10.11,3,10.11,9.27s-4.35,9-10.11,9H65.83Zm3.67,0v8.36c3.2-.16,4.92-1.45,4.92-4.16S72.7,89.14,69.5,89Z"/><path class="cls-1" d="M57.55,114.18v-6.3l20.23-3.74V109l-14.89,2.18,14.89,3.43v6L62.89,124l14.89,2.18v4.88l-20.23-3.78V121l15-3.39Z"/><path class="cls-1" d="M11.74,15.12V10H37.05V2.91h4.46V22.22H37.05v-7.1Z"/><path class="cls-1" d="M29.91,30.12a7.65,7.65,0,0,1,2.56,6.11c0,4.43-3.21,6.22-6.87,6.22H11.74V37.53H24.79c1.95,0,3.36-1,3.36-3.21a4.76,4.76,0,0,0-2.33-4.2H11.74v-5H42.28v5Z"/><path class="cls-1" d="M21.24,45.81h1.23c5.8,0,10,2.83,10,9.16s-4.2,9.16-10,9.16H21.24c-5.76,0-10-2.82-10-9.16S15.48,45.81,21.24,45.81Zm0,13.36h1.23c3.51,0,5.68-1.3,5.68-4.2s-2.17-4.2-5.68-4.2H21.24c-3.47,0-5.65,1.3-5.65,4.2S17.77,59.17,21.24,59.17Z"/><path class="cls-1" d="M11.74,90.86h13.4c2.06,0,3-1,3-2.87A4.33,4.33,0,0,0,26,84.25H11.74V79.33h13.4c2.06,0,3-1,3-2.9A4.22,4.22,0,0,0,26,72.72H11.74v-5h14.5L32,67.42v4.39l-2.52.42a7.13,7.13,0,0,1,3,6.14,5.26,5.26,0,0,1-3.21,5.23,7.1,7.1,0,0,1,3.21,6.3c0,4-2.75,5.92-6.57,5.92H11.74Z"/><path class="cls-1" d="M13.61,104.9H4.11v-5H26.24l5.73-.3V104l-2.52.42a6.52,6.52,0,0,1,3,5.84c0,5.53-4.2,7.55-10,7.55H21.24c-5.76,0-10-2-10-7.55A6.58,6.58,0,0,1,13.61,104.9Zm4.27,0a4.69,4.69,0,0,0-2.29,4c0,2.83,2.1,4,5.65,4h1.23c3.55,0,5.68-1.18,5.68-4a4.69,4.69,0,0,0-2.33-4Z"/><path class="cls-1" d="M17.62,132.77c1.75,0,2.36-1,2.59-3.86.46-5.61,2-7.78,5.58-7.78h.3c4.32,0,6.38,3.39,6.38,8.17,0,5.8-2.71,8.2-6.91,8.2h-.19v-4.84c2,0,3.24-.92,3.24-3.36,0-2.1-.91-3.29-2.4-3.29s-2.22.73-2.45,3.71c-.42,5.07-1.6,8-5.68,8h-.27c-4,0-6.57-2.86-6.57-8.43,0-5.84,3-8.44,6.68-8.44h.16v4.92c-1.65,0-3,.84-3,3.52C15.1,131.66,16.13,132.77,17.62,132.77Z"/><path class="cls-1" d="M21.24,140.71h1.23c5.8,0,10,2.82,10,9.16s-4.2,9.16-10,9.16H21.24c-5.76,0-10-2.82-10-9.16S15.48,140.71,21.24,140.71Zm0,13.36h1.23c3.51,0,5.68-1.3,5.68-4.2s-2.17-4.2-5.68-4.2H21.24c-3.47,0-5.65,1.3-5.65,4.2S17.77,154.07,21.24,154.07Z"/><path class="cls-1" d="M11.74,175H24.79c1.95,0,3.36-1,3.36-3.21a4.75,4.75,0,0,0-2.33-4.2H11.74v-5h14.5l5.73-.34v4.39l-2.67.45a7.51,7.51,0,0,1,3.17,6.57c0,4.43-3.21,6.22-6.87,6.22H11.74Z"/><path class="cls-2" d="M34.83,1.3c-.72,10.78,8.38,19.52,16.74,25,9.46,6.13,20.55,9.1,31.65,10.39,1.59.19,1.72-2.19.36-2.66A641.07,641.07,0,0,0,1.7,11.61C0,11.26-.74,13.87,1,14.22A639.47,639.47,0,0,1,82.86,36.6l.36-2.67C73.61,32.81,64,30.32,55.59,25.51S36.83,12.06,37.55,1.3c.11-1.74-2.6-1.73-2.72,0Z"/><path class="cls-2" d="M32.76,15.68l1.54,7.46,1-1.67-3.86,1.09a1.37,1.37,0,0,0-.6,2.27C32.15,26,35,28.31,34.33,29.74c-.24.49-2.95,2-3.4,2.64C28.42,35.72,28.81,40.05,29.3,44c.22,1.71,2.93,1.73,2.71,0-.42-3.42-1.09-8.13,1.75-10.74,1-.9,3.16-1.18,3.75-2.66,1.07-2.7-3.23-6.31-4.81-7.66l-.59,2.27L36,24.09a1.39,1.39,0,0,0,1-1.67L35.38,15c-.36-1.71-3-1-2.62.72Z"/><path class="cls-2" d="M50.24,50A231.63,231.63,0,0,0,26.62,43.9a1.36,1.36,0,0,0-1,2.48c2.9,2,10.2,5.91,13.43,2.6,2.74-2.81,0-11.08-1.86-13.63s-5-3.34-6.69-.25c-2.39,4.42.74,12.42,1.91,16.74L34,50.17l-1.71-.4a1.37,1.37,0,0,0-1.53,2,48.67,48.67,0,0,0,7.32,8.69l-.21-1.65c-2.38,4.23-1.62,8.67-1.34,13.33a138.83,138.83,0,0,1-.26,19.24c-.14,1.74,2.57,1.73,2.71,0a139.53,139.53,0,0,0,.43-15.57c-.16-5-1.74-11.1.8-15.63A1.37,1.37,0,0,0,40,58.53a45.08,45.08,0,0,1-6.89-8.14l-1.54,2,1.71.41A1.37,1.37,0,0,0,35,51.12c-.62-2.27-1.19-4.55-1.63-6.87-.31-1.59-2.58-10.21,2.6-5,1.53,1.54,2,7.06-.25,8S28.61,45.17,27,44L25.9,46.52a231.39,231.39,0,0,1,23.61,6c1.67.52,2.39-2.09.73-2.61Z"/><path class="cls-2" d="M62.24,62.21a437.32,437.32,0,0,0,4.59,44.22Q68.61,117.8,71,129.06c.9,4.25,1.07,10.57,5.24,13.07a1.38,1.38,0,0,0,1.86-.48,7.31,7.31,0,0,0,1-4.2c-.07-1.74-2.79-1.75-2.72,0l-.64,2.83,1.86-.49c-2.67-1.6-3-6.94-3.59-9.58-.68-3.12-1.32-6.26-1.93-9.39q-1.82-9.42-3.22-18.91C66.93,88.75,65.66,75.5,65,62.21c-.09-1.74-2.81-1.75-2.71,0Z"/><path class="cls-2" d="M59.93,79.61l-35-11.93a1.36,1.36,0,0,0-1.05,2.48A189.93,189.93,0,0,1,56.29,91.45l1-2.32c-8.83.63-15.63-7.1-24.64-5.8-.94.13-1.14,1.3-.81,2A34.84,34.84,0,0,0,42.07,98.05l1.65-2.14C41.81,95,32.22,88.57,31.09,94s7.5,9.25,11.32,9.81a1.38,1.38,0,0,0,1.67-1.66c-.41-2.69-1.74-4-4.24-4.89a1.36,1.36,0,0,0-1.66,1.67,45.44,45.44,0,0,0,3,7.19l1.17-2A7.16,7.16,0,0,0,38,105.89a1.36,1.36,0,0,0-.21,1.65l4.68,6.28,1.17-2a127.66,127.66,0,0,1-39.9-9L4,105.23c5.8-3.64,16.12-.55,22.28,1.17,7.43,2.08,14.46,6.21,17.42,13.68l1-1.67-4-.18A1.37,1.37,0,0,0,39,119.9l2,5.55,2.27-1.32a7.45,7.45,0,0,0-3.19-2,1.35,1.35,0,0,0-1.67.94c-1.34,7.49,1,15.31.86,22.91-.16,8.39-1.13,16.78-1.83,25.13l-4.31,51.26c-.15,1.74,2.57,1.73,2.71,0l4.15-49.29c.65-7.75,1.46-15.52,1.85-23.3a94.1,94.1,0,0,0,0-11.39c-.35-4.88-1.69-9.7-.82-14.6l-1.67,1,2,1.32c.93.85,2.75,0,2.27-1.32l-2-5.55-1.67,1.66a10.66,10.66,0,0,0,5.49.19,1.35,1.35,0,0,0,1-1.67c-3.1-7.81-9.87-12.6-17.71-15.1a82.88,82.88,0,0,0-15.46-3c-3.78-.44-7.22-.42-10.52,1.65A1.38,1.38,0,0,0,3,105.37a130.12,130.12,0,0,0,40.62,9.12,1.36,1.36,0,0,0,1.17-2l-4.68-6.28-.21,1.64,2.41-1a1.38,1.38,0,0,0,1.17-2,42.77,42.77,0,0,1-2.68-6.54l-1.67,1.67,2.34,3,1.67-1.67c-2.42-.36-6.89-1.48-7.75-4.09-1.21-.88-1.06-1.27.45-1.15a1.84,1.84,0,0,1,2.12.21,27.83,27.83,0,0,1,4.4,2.12c1.28.61,2.94-1.13,1.64-2.13A33.42,33.42,0,0,1,34.14,84l-.81,2c8.5-1.23,15.32,6.51,23.92,5.89,1-.07,2-1.51,1-2.31a193.71,193.71,0,0,0-33-21.71l-1.05,2.47L59.21,82.23c1.65.56,2.36-2.06.72-2.62Z"/></g></g></svg>